<svg width="800" height="800" viewBox="0 0 24 24" fill="none" xmlns="http://www.w3.org/2000/svg"><path fill-rule="evenodd" clip-rule="evenodd" d="M7 8v9a1 1 0 0 1-1 1c-.552 0-1-.51-1-1.063A896878.695 896878.695 0 0 1 5.002 7.9a8.362 8.362 0 0 1 .105-1.001c.105-.628.316-1.48.749-2.345.434-.869 1.101-1.768 2.12-2.448C9.003 1.422 10.326 1 12 1c1.695 0 2.998.422 4.023 1.105 1.02.68 1.687 1.58 2.121 2.448.433.864.644 1.717.749 2.345a8.33 8.33 0 0 1 .105 1.001L19 8c.014 2.769 0 9.718 0 10.001a2.479 2.479 0 0 1-.01.242 5.9 5.9 0 0 1-.066.546 5.912 5.912 0 0 1-.53 1.658 4.51 4.51 0 0 1-1.527 1.76c-.744.496-1.692.793-2.867.793s-2.123-.297-2.867-.793a4.51 4.51 0 0 1-1.527-1.76 5.914 5.914 0 0 1-.53-1.658A5.906 5.906 0 0 1 9 18.002c-.004-2.998 0-5.995 0-8.993a3.451 3.451 0 0 1 .045-.486c.042-.253.128-.606.31-.97.185-.369.477-.768.934-1.073C10.752 6.172 11.325 6 12 6s1.248.172 1.71.48c.458.305.75.704.934 1.073A3.453 3.453 0 0 1 15 8.998V17a1 1 0 1 1-2 0V9.009a1.464 1.464 0 0 0-.144-.562.758.758 0 0 0-.255-.302C12.502 8.078 12.325 8 12 8c-.325 0-.502.078-.601.145a.758.758 0 0 0-.255.302A1.464 1.464 0 0 0 11 9.01v8.987c0 .035.003.07.005.105.006.082.018.207.044.36.052.31.153.707.345 1.092.191.381.461.732.848.99.38.254.933.457 1.758.457s1.377-.203 1.758-.457c.387-.258.657-.609.848-.99a3.92 3.92 0 0 0 .345-1.092 3.903 3.903 0 0 0 .049-.465V7.999a6.36 6.36 0 0 0-.08-.772 6.379 6.379 0 0 0-.564-1.78c-.316-.631-.774-1.232-1.442-1.677C14.252 3.328 13.325 3 12 3c-1.325 0-2.252.328-2.914.77-.668.445-1.126 1.046-1.442 1.677a6.375 6.375 0 0 0-.564 1.78c-.04.246-.061.449-.07.586-.007.094-.009.144-.01.188Z" fill="#0F0F0F"/></svg>