<svg height="800" width="800" xmlns="http://www.w3.org/2000/svg" viewBox="0 0 512 512" xml:space="preserve"><path style="fill:#d55400" d="M433.253 125.646h-68.299c-10.777 0-19.514-8.737-19.514-19.514V82.324c0-29.59 24.074-53.664 53.664-53.664s53.664 24.074 53.664 53.664v23.807c-.001 10.778-8.737 19.515-19.515 19.515zM433.253 483.34h-68.299c-10.777 0-19.514-8.737-19.514-19.514v-120.61c0-10.777 8.737-19.514 19.514-19.514h68.299c10.777 0 19.514 8.737 19.514 19.514v120.61c0 10.778-8.736 19.514-19.514 19.514z"/><path style="fill:#e87e04" d="M147.045 125.646H78.746c-10.777 0-19.514-8.737-19.514-19.514V82.324c0-29.59 24.074-53.664 53.664-53.664s53.664 24.074 53.664 53.664v23.807c0 10.778-8.738 19.515-19.515 19.515zM147.045 483.34H78.746c-10.777 0-19.514-8.737-19.514-19.514v-120.61c0-10.777 8.737-19.514 19.514-19.514h68.299c10.777 0 19.514 8.737 19.514 19.514v120.61c.001 10.778-8.737 19.514-19.514 19.514z"/><path style="fill:#f2c500" d="M466.467 362.729H45.533C20.426 362.729 0 342.303 0 317.196V132.15c0-25.107 20.426-45.533 45.533-45.533h420.934c25.107 0 45.533 20.426 45.533 45.533v185.046c0 25.107-20.427 45.533-45.533 45.533z"/><path style="fill:#f59d00" d="M466.467 86.617H255.999v276.112h210.466c25.107 0 45.533-20.426 45.533-45.533V132.15c.002-25.107-20.425-45.533-45.531-45.533z"/><path style="fill:#808285" d="M116.532 246.625c-2.036 5.935-15.559 5.491-16.815 0l-4.285-19.534-4.287 19.534c-1.274 5.569-14.975 5.854-16.813 0L57.93 196.349c-1.698-5.081 10.836-8.842 12.281-3.791l12.528 42.282 6.511-27.858c.998-4.493 11.366-4.49 12.363 0l6.511 27.858 12.528-42.282c1.439-5.04 13.96-1.31 12.281 3.791l-16.401 50.276zM157.254 215.305h12.363c5.083 0 5.24 9.891 0 9.891h-12.363v14.011h22.089c5.096 0 5.255 11.209 0 11.209h-29.341c-2.802 0-5.606-1.319-5.606-3.956v-52.337c0-2.637 2.802-3.956 5.606-3.956h29.341c5.258 0 5.093 11.209 0 11.209h-22.089v13.929zM201.022 250.416c-2.802 0-5.606-1.319-5.606-3.956v-52.42c0-2.72 3.215-3.873 6.428-3.873 3.216 0 6.429 1.154 6.429 3.873v45.166h18.791c4.946 0 4.946 11.209 0 11.209h-26.042v.001zM261.275 201.376c-4.698 0-7.418 2.637-7.418 8.243v21.842c0 5.604 2.72 8.241 7.5 8.241 6.593 0 7.007-5.028 7.253-8.241.247-3.049 3.051-3.874 6.347-3.874 4.451 0 6.511 1.154 6.511 6.1 0 21.775-40.468 25.498-40.468-2.226v-21.842c0-27.783 40.468-23.656 40.468-3.049 0 4.945-2.061 6.099-6.428 6.099-3.462 0-6.265-.907-6.429-3.874-.085-2.144-.331-7.419-7.336-7.419zM293.917 231.46v-21.842c0-14.176 8.819-19.452 20.195-19.452 11.373 0 20.275 5.275 20.275 19.452v21.842c0 14.176-8.902 19.452-20.275 19.452-11.376-.001-20.195-5.275-20.195-19.452zm27.609-21.841c0-5.688-2.801-8.243-7.417-8.243s-7.336 2.555-7.336 8.243v21.842c0 5.686 2.72 8.241 7.336 8.241s7.417-2.555 7.417-8.241v-21.842zM378.236 229.071c-1.841 3.116-6.593 3.32-8.323 0l-7.829-14.342v31.733c0 5.275-12.859 5.275-12.859 0v-49.865c0-4.698 3.215-6.428 6.429-6.428 4.614 0 6.593.494 9.972 6.428l8.49 14.836 8.489-14.836c3.38-5.935 5.356-6.428 9.973-6.428 3.295 0 6.428 1.73 6.428 6.428v49.865c0 5.275-12.859 5.275-12.859 0v-30.908l-7.911 13.517zM427.363 215.305h12.363c5.083 0 5.24 9.891 0 9.891h-12.363v14.011h22.089c5.096 0 5.254 11.209 0 11.209h-29.341c-2.802 0-5.606-1.319-5.606-3.956v-52.337c0-2.637 2.802-3.956 5.606-3.956h29.341c5.256 0 5.094 11.209 0 11.209h-22.089v13.929z"/><path style="fill:#6d6e71" d="M274.954 227.589c-3.291 0-6.101.82-6.349 3.877-.247 3.213-.65 8.235-7.246 8.235-2.277 0-4.085-.598-5.36-1.847v12.814c11.526 2.368 25.472-4.189 25.472-16.977.001-4.946-2.068-6.102-6.517-6.102zm-18.955-37.156v12.762c1.249-1.224 3.031-1.821 5.269-1.821 7.012 0 7.259 5.282 7.337 7.415.169 2.966 2.966 3.877 6.427 3.877 4.371 0 6.44-1.158 6.44-6.101 0-12.1-13.959-18.513-25.473-16.132zM293.917 231.46v-21.842c0-14.176 8.819-19.452 20.195-19.452 11.373 0 20.275 5.275 20.275 19.452v21.842c0 14.176-8.902 19.452-20.275 19.452-11.376-.001-20.195-5.275-20.195-19.452zm27.609-21.841c0-5.688-2.801-8.243-7.417-8.243s-7.336 2.555-7.336 8.243v21.842c0 5.686 2.72 8.241 7.336 8.241s7.417-2.555 7.417-8.241v-21.842zM378.236 229.071c-1.841 3.116-6.593 3.32-8.323 0l-7.829-14.342v31.733c0 5.275-12.859 5.275-12.859 0v-49.865c0-4.698 3.215-6.428 6.429-6.428 4.614 0 6.593.494 9.972 6.428l8.49 14.836 8.489-14.836c3.38-5.935 5.356-6.428 9.973-6.428 3.295 0 6.428 1.73 6.428 6.428v49.865c0 5.275-12.859 5.275-12.859 0v-30.908l-7.911 13.517zM427.363 215.305h12.363c5.083 0 5.24 9.891 0 9.891h-12.363v14.011h22.089c5.096 0 5.254 11.209 0 11.209h-29.341c-2.802 0-5.606-1.319-5.606-3.956v-52.337c0-2.637 2.802-3.956 5.606-3.956h29.341c5.256 0 5.094 11.209 0 11.209h-22.089v13.929z"/></svg>